{
 "cells": [
  {
   "cell_type": "code",
   "execution_count": 74,
   "id": "5e4f3fbf",
   "metadata": {},
   "outputs": [],
   "source": [
    "from pathlib import Path\n",
    "import ffmpeg\n",
    "import argparse\n",
    "import numpy as np\n",
    "import logging\n",
    "import pandas as pd\n",
    "import math\n",
    "import numpy as np\n",
    "\n",
    "class Sampler:\n",
    "    def __init__(self, input_path, ann_file_path):\n",
    "        \"\"\"\n",
    "        The Sampler class contains sampling methods for the video input data.\n",
    "        :param input_path: file path for the input videos\n",
    "        :param ann_file_path: file path for annotation file belonging to the video input data\n",
    "        \"\"\"\n",
    "        self.input = input_path\n",
    "        self.ann_file = ann_file_path\n",
    "\n",
    "    \n",
    "    def stratifiedSampling(self, output_path, trim_len=10, n_fall_samples=3, samples_per_min=1):\n",
    "        \"\"\"\n",
    "        Stratified sampling only samples from videos which contain all three \n",
    "        actions (ADL, falling, lying). From these videos, a base rate of fall \n",
    "        samples will be sampled uniformly on the fall interval (time where fall happens). \n",
    "        ADL and lying activities are sampled based on their ratio of duration based \n",
    "        on sample rate.\n",
    "        :param trim_len: sample video length in seconds (defaults to 10) \n",
    "        :param fall_samples: amount of fall samples to collect from videos where \n",
    "        falls occur (defaults to 3) \n",
    "        :param samples_per_min: amount of samples per minute from ADL and lying activities \n",
    "        (defaults to 1)\n",
    "        :param output_path: filepath for sample outputs\n",
    "        \"\"\"\n",
    "        \n",
    "        # Read annotation file to dataframe\n",
    "        df = pd.read_csv(self.ann_file)\n",
    "        \n",
    "        # Filter for only fall videos\n",
    "        df = df[df['category'] == \"Fall\"] \n",
    "        \n",
    "        # Reset index after filtering\n",
    "        df = df.reset_index()\n",
    "        \n",
    "        sample_list = []\n",
    "\n",
    "        for i in df.index:\n",
    "            \n",
    "            # Get timestamps\n",
    "            fall_start = float(df.loc[i, 'fall_start'])\n",
    "            fall_end = float(df.loc[i, 'fall_end'])\n",
    "            lying_start = float(df.loc[i, 'lying_start'])\n",
    "            lying_end = float(df.loc[i, 'lying_end'])\n",
    "            video_end = float(df.loc[i, 'length'])\n",
    "            \n",
    "            # Calculate action durations\n",
    "            ADL1_time = fall_start\n",
    "            ADL2_time = video_end - lying_end\n",
    "            ADL_time = ADL1_time + ADL2_time\n",
    "            fall_time = fall_end - fall_start\n",
    "            lying_time = lying_end - lying_start\n",
    "            \n",
    "            # Calculate number of samples for ADL and lying activities\n",
    "            n_samples = round((ADL_time + lying_time) / 60) * samples_per_min\n",
    "            n_ADL_samples = round(n_samples * (ADL_time / (ADL_time + lying_time)))\n",
    "            n_lying_samples = n_samples - n_ADL_samples\n",
    "            n_ADL1_samples = round((ADL1_time/ADL_time)*n_ADL_samples)\n",
    "            n_ADL2_samples = n_ADL_samples - n_ADL1_samples\n",
    "            \n",
    "            # Sample uniformly on the intervals\n",
    "            ADL1_samples = np.random.uniform(0, ADL1_time, n_ADL1_samples)\n",
    "            ADL2_samples = np.random.uniform(lying_end, video_end, n_ADL2_samples)\n",
    "            fall_samples = np.random.uniform(fall_start, fall_end, n_fall_samples)\n",
    "            lying_samples = np.random.uniform(lying_start, lying_end, n_lying_samples)\n",
    "            \n",
    "            # Create sample list [video path, [sample timestamps]]\n",
    "            sample_list.append([\n",
    "                df.loc[i, \"video_path\"], \n",
    "                np.concatenate((ADL1_samples, \n",
    "                               ADL2_samples, \n",
    "                               fall_samples, \n",
    "                               lying_samples)).tolist()\n",
    "            ])\n",
    "            \n",
    "        # Generate samples\n",
    "        self.outputSamples(sample_list, output_path)\n",
    "    \n",
    "    \n",
    "    def outputSamples(self, sample_list, output_path, trim_len=10):\n",
    "        \"\"\"\n",
    "        Utility function for trimming input videos and outputting them\n",
    "        to the given output path (generating samples).\n",
    "        :param sample_list: a list containing the video name and a list \n",
    "        of sample start timestamps, e.g. \n",
    "        [data/Fall_Simulation_Data/videos/Fall30_Cam3.avi, \n",
    "         [7.16443459, 15.836356, 104.36721318, 26.32500079]\n",
    "         ]\n",
    "        :param output_path: filepath for sample outputs\n",
    "        :param trim_len: sample video length in seconds (defaults to 10) \n",
    "        \"\"\"\n",
    "        logging.basicConfig(level=logging.INFO)\n",
    "        logger = logging.getLogger(__name__)\n",
    "        \n",
    "        #TODO: remove\n",
    "        count = 0  \n",
    "        \n",
    "        for sample in sample_list:\n",
    "            \n",
    "            # TODO: remove\n",
    "            if count > 0:\n",
    "                break\n",
    "            count += 1\n",
    "            \n",
    "             # Create path\n",
    "            path = Path(\"../\" + sample[0])\n",
    "            output_path = Path(output_path)\n",
    "            output_path.mkdir(parents=True, exist_ok=True)\n",
    "            \n",
    "            # Store sample timestamps\n",
    "            timestamps = sample[1]\n",
    "            print(f'Timestamps: {timestamps}')\n",
    "            \n",
    "            # Get video data\n",
    "            video_probe = ffmpeg.probe(path)\n",
    "            video_duration = video_probe.get(\"format\", {}).get(\"duration\", None)\n",
    "            logger.debug(f\"Video duration: {video_duration}\")\n",
    "            input_stream = ffmpeg.input(path)\n",
    "            \n",
    "            # Output samples\n",
    "            for t in timestamps:\n",
    "                \n",
    "                # Trim video\n",
    "                video = input_stream.trim(start=t, end=t+trim_len).setpts(\n",
    "                    \"PTS-STARTPTS\"\n",
    "                )\n",
    "                \n",
    "                # Create output path\n",
    "                output_file_path = output_path.joinpath(\n",
    "                    Path(sample[0]).stem + f\"_{round(t, 3)}_{round(t+trim_len, 3)}\" + \".mp4\"\n",
    "                )  # e.g. output_path/ADL1_Cam2_20_30.avi\n",
    "\n",
    "                # Output\n",
    "                output = ffmpeg.output(video, output_file_path.as_posix(), f=\"mp4\")\n",
    "                output.run()\n",
    "                \n",
    "        logger.info(\"Videos trimming completed successfully.\")"
   ]
  },
  {
   "cell_type": "code",
   "execution_count": 75,
   "id": "721ffdd4",
   "metadata": {},
   "outputs": [
    {
     "name": "stdout",
     "output_type": "stream",
     "text": [
      "Timestamps: [21.86586029763899, 13.64965263837777, 93.39968160459098, 25.42596113021942, 26.59465366043841, 24.46918285662431, 43.4301568313621, 60.29304291621934, 61.24955984088418]\n"
     ]
    },
    {
     "name": "stderr",
     "output_type": "stream",
     "text": [
      "ffmpeg version 4.2.2 Copyright (c) 2000-2019 the FFmpeg developers\n",
      "  built with clang version 12.0.0\n",
      "  configuration: --prefix=/Users/ktietz/demo/mc3/conda-bld/ffmpeg_1628925491858/_h_env_placehold_placehold_placehold_placehold_placehold_placehold_placehold_placehold_placehold_placehold_placehold_placehold_placehold_placehold_placehold_placehold_placehold_placehold_placehold_plac --cc=arm64-apple-darwin20.0.0-clang --disable-doc --enable-avresample --enable-gmp --enable-hardcoded-tables --enable-libfreetype --enable-libvpx --enable-pthreads --enable-libopus --enable-postproc --enable-pic --enable-pthreads --enable-shared --enable-static --enable-version3 --enable-zlib --enable-libmp3lame --disable-nonfree --enable-gpl --enable-gnutls --disable-openssl --enable-libopenh264 --enable-libx264\n",
      "  libavutil      56. 31.100 / 56. 31.100\n",
      "  libavcodec     58. 54.100 / 58. 54.100\n",
      "  libavformat    58. 29.100 / 58. 29.100\n",
      "  libavdevice    58.  8.100 / 58.  8.100\n",
      "  libavfilter     7. 57.100 /  7. 57.100\n",
      "  libavresample   4.  0.  0 /  4.  0.  0\n",
      "  libswscale      5.  5.100 /  5.  5.100\n",
      "  libswresample   3.  5.100 /  3.  5.100\n",
      "  libpostproc    55.  5.100 / 55.  5.100\n",
      "Input #0, avi, from '../data/Fall_Simulation_Data/videos/Fall30_Cam3.avi':\n",
      "  Metadata:\n",
      "    encoder         : Axara Ltd.\n",
      "  Duration: 00:01:50.23, start: 0.000000, bitrate: 717 kb/s\n",
      "    Stream #0:0: Video: mpeg4 (Advanced Simple Profile) (XVID / 0x44495658), yuv420p, 800x480 [SAR 1:1 DAR 5:3], 479 kb/s, 30 fps, 30 tbr, 30 tbn, 30 tbc\n",
      "    Stream #0:1: Audio: mp3 (U[0][0][0] / 0x0055), 44100 Hz, stereo, fltp, 224 kb/s\n",
      "Stream mapping:\n",
      "  Stream #0:0 (mpeg4) -> trim\n",
      "  setpts -> Stream #0:0 (libx264)\n",
      "Press [q] to stop, [?] for help\n",
      "[mpeg4 @ 0x14083ca00] Video uses a non-standard and wasteful way to store B-frames ('packed B-frames'). Consider using the mpeg4_unpack_bframes bitstream filter without encoding but stream copy to fix it.\n",
      "[libx264 @ 0x14082ce00] using SAR=1/1\n",
      "[libx264 @ 0x14082ce00] using cpu capabilities: ARMv8 NEON\n",
      "[libx264 @ 0x14082ce00] profile High, level 3.1\n",
      "[libx264 @ 0x14082ce00] 264 - core 152 - H.264/MPEG-4 AVC codec - Copyleft 2003-2017 - http://www.videolan.org/x264.html - options: cabac=1 ref=3 deblock=1:0:0 analyse=0x3:0x113 me=hex subme=7 psy=1 psy_rd=1.00:0.00 mixed_ref=1 me_range=16 chroma_me=1 trellis=1 8x8dct=1 cqm=0 deadzone=21,11 fast_pskip=1 chroma_qp_offset=-2 threads=12 lookahead_threads=2 sliced_threads=0 nr=0 decimate=1 interlaced=0 bluray_compat=0 constrained_intra=0 bframes=3 b_pyramid=2 b_adapt=1 b_bias=0 direct=1 weightb=1 open_gop=0 weightp=2 keyint=250 keyint_min=25 scenecut=40 intra_refresh=0 rc_lookahead=40 rc=crf mbtree=1 crf=23.0 qcomp=0.60 qpmin=0 qpmax=69 qpstep=4 ip_ratio=1.40 aq=1:1.00\n",
      "Output #0, mp4, to '../data/Fall_Simulation_Data/sample_outputs/Fall30_Cam3_21.866_31.866.mp4':\n",
      "  Metadata:\n",
      "    encoder         : Lavf58.29.100\n",
      "    Stream #0:0: Video: h264 (libx264) (avc1 / 0x31637661), yuv420p, 800x480 [SAR 1:1 DAR 5:3], q=-1--1, 30 fps, 15360 tbn, 30 tbc\n",
      "    Metadata:\n",
      "      encoder         : Lavc58.54.100 libx264\n",
      "    Side data:\n",
      "      cpb: bitrate max/min/avg: 0/0/0 buffer size: 0 vbv_delay: -1\n",
      "frame=  300 fps=0.0 q=-1.0 Lsize=     439kB time=00:00:09.90 bitrate= 363.6kbits/s speed=21.3x    \n",
      "video:435kB audio:0kB subtitle:0kB other streams:0kB global headers:0kB muxing overhead: 0.996488%\n",
      "[libx264 @ 0x14082ce00] frame I:2     Avg QP:16.43  size: 29503\n",
      "[libx264 @ 0x14082ce00] frame P:76    Avg QP:20.23  size:  4445\n",
      "[libx264 @ 0x14082ce00] frame B:222   Avg QP:19.22  size:   216\n",
      "[libx264 @ 0x14082ce00] consecutive B-frames:  1.0%  0.7%  1.0% 97.3%\n",
      "[libx264 @ 0x14082ce00] mb I  I16..4: 36.6% 56.3%  7.0%\n",
      "[libx264 @ 0x14082ce00] mb P  I16..4:  0.5%  0.6%  0.0%  P16..4: 30.3%  5.5%  5.7%  0.0%  0.0%    skip:57.3%\n",
      "[libx264 @ 0x14082ce00] mb B  I16..4:  0.0%  0.0%  0.0%  B16..8: 14.5%  0.1%  0.0%  direct: 0.0%  skip:85.4%  L0:50.1% L1:49.3% BI: 0.6%\n",
      "[libx264 @ 0x14082ce00] 8x8 transform intra:55.8% inter:92.9%\n",
      "[libx264 @ 0x14082ce00] coded y,uvDC,uvAC intra: 49.0% 57.7% 33.8% inter: 3.1% 5.0% 1.4%\n",
      "[libx264 @ 0x14082ce00] i16 v,h,dc,p: 48% 14%  4% 34%\n",
      "[libx264 @ 0x14082ce00] i8 v,h,dc,ddl,ddr,vr,hd,vl,hu: 16% 25% 27%  4%  4%  3%  6%  5%  9%\n",
      "[libx264 @ 0x14082ce00] i4 v,h,dc,ddl,ddr,vr,hd,vl,hu: 24% 25% 20%  4%  6%  5%  5%  4%  7%\n",
      "[libx264 @ 0x14082ce00] i8c dc,h,v,p: 55% 22% 21%  3%\n",
      "[libx264 @ 0x14082ce00] Weighted P-Frames: Y:0.0% UV:0.0%\n",
      "[libx264 @ 0x14082ce00] ref P L0: 68.9%  4.3% 20.4%  6.3%\n",
      "[libx264 @ 0x14082ce00] ref B L0: 85.1% 12.8%  2.0%\n",
      "[libx264 @ 0x14082ce00] ref B L1: 94.2%  5.8%\n",
      "[libx264 @ 0x14082ce00] kb/s:355.91\n",
      "ffmpeg version 4.2.2 Copyright (c) 2000-2019 the FFmpeg developers\n",
      "  built with clang version 12.0.0\n",
      "  configuration: --prefix=/Users/ktietz/demo/mc3/conda-bld/ffmpeg_1628925491858/_h_env_placehold_placehold_placehold_placehold_placehold_placehold_placehold_placehold_placehold_placehold_placehold_placehold_placehold_placehold_placehold_placehold_placehold_placehold_placehold_plac --cc=arm64-apple-darwin20.0.0-clang --disable-doc --enable-avresample --enable-gmp --enable-hardcoded-tables --enable-libfreetype --enable-libvpx --enable-pthreads --enable-libopus --enable-postproc --enable-pic --enable-pthreads --enable-shared --enable-static --enable-version3 --enable-zlib --enable-libmp3lame --disable-nonfree --enable-gpl --enable-gnutls --disable-openssl --enable-libopenh264 --enable-libx264\n",
      "  libavutil      56. 31.100 / 56. 31.100\n",
      "  libavcodec     58. 54.100 / 58. 54.100\n",
      "  libavformat    58. 29.100 / 58. 29.100\n",
      "  libavdevice    58.  8.100 / 58.  8.100\n",
      "  libavfilter     7. 57.100 /  7. 57.100\n",
      "  libavresample   4.  0.  0 /  4.  0.  0\n",
      "  libswscale      5.  5.100 /  5.  5.100\n",
      "  libswresample   3.  5.100 /  3.  5.100\n",
      "  libpostproc    55.  5.100 / 55.  5.100\n",
      "Input #0, avi, from '../data/Fall_Simulation_Data/videos/Fall30_Cam3.avi':\n",
      "  Metadata:\n",
      "    encoder         : Axara Ltd.\n",
      "  Duration: 00:01:50.23, start: 0.000000, bitrate: 717 kb/s\n",
      "    Stream #0:0: Video: mpeg4 (Advanced Simple Profile) (XVID / 0x44495658), yuv420p, 800x480 [SAR 1:1 DAR 5:3], 479 kb/s, 30 fps, 30 tbr, 30 tbn, 30 tbc\n",
      "    Stream #0:1: Audio: mp3 (U[0][0][0] / 0x0055), 44100 Hz, stereo, fltp, 224 kb/s\n",
      "Stream mapping:\n",
      "  Stream #0:0 (mpeg4) -> trim\n",
      "  setpts -> Stream #0:0 (libx264)\n",
      "Press [q] to stop, [?] for help\n",
      "[mpeg4 @ 0x13803b000] Video uses a non-standard and wasteful way to store B-frames ('packed B-frames'). Consider using the mpeg4_unpack_bframes bitstream filter without encoding but stream copy to fix it.\n",
      "[libx264 @ 0x138010000] using SAR=1/1\n",
      "[libx264 @ 0x138010000] using cpu capabilities: ARMv8 NEON\n",
      "[libx264 @ 0x138010000] profile High, level 3.1\n",
      "[libx264 @ 0x138010000] 264 - core 152 - H.264/MPEG-4 AVC codec - Copyleft 2003-2017 - http://www.videolan.org/x264.html - options: cabac=1 ref=3 deblock=1:0:0 analyse=0x3:0x113 me=hex subme=7 psy=1 psy_rd=1.00:0.00 mixed_ref=1 me_range=16 chroma_me=1 trellis=1 8x8dct=1 cqm=0 deadzone=21,11 fast_pskip=1 chroma_qp_offset=-2 threads=12 lookahead_threads=2 sliced_threads=0 nr=0 decimate=1 interlaced=0 bluray_compat=0 constrained_intra=0 bframes=3 b_pyramid=2 b_adapt=1 b_bias=0 direct=1 weightb=1 open_gop=0 weightp=2 keyint=250 keyint_min=25 scenecut=40 intra_refresh=0 rc_lookahead=40 rc=crf mbtree=1 crf=23.0 qcomp=0.60 qpmin=0 qpmax=69 qpstep=4 ip_ratio=1.40 aq=1:1.00\n",
      "Output #0, mp4, to '../data/Fall_Simulation_Data/sample_outputs/Fall30_Cam3_13.65_23.65.mp4':\n",
      "  Metadata:\n",
      "    encoder         : Lavf58.29.100\n",
      "    Stream #0:0: Video: h264 (libx264) (avc1 / 0x31637661), yuv420p, 800x480 [SAR 1:1 DAR 5:3], q=-1--1, 30 fps, 15360 tbn, 30 tbc\n",
      "    Metadata:\n",
      "      encoder         : Lavc58.54.100 libx264\n",
      "    Side data:\n",
      "      cpb: bitrate max/min/avg: 0/0/0 buffer size: 0 vbv_delay: -1\n",
      "frame=  300 fps=0.0 q=-1.0 Lsize=     477kB time=00:00:09.90 bitrate= 395.0kbits/s speed=22.6x    \n",
      "video:473kB audio:0kB subtitle:0kB other streams:0kB global headers:0kB muxing overhead: 0.918371%\n",
      "[libx264 @ 0x138010000] frame I:2     Avg QP:16.37  size: 29274\n",
      "[libx264 @ 0x138010000] frame P:76    Avg QP:20.62  size:  4897\n",
      "[libx264 @ 0x138010000] frame B:222   Avg QP:19.61  size:   238\n",
      "[libx264 @ 0x138010000] consecutive B-frames:  1.3%  0.0%  0.0% 98.7%\n",
      "[libx264 @ 0x138010000] mb I  I16..4: 36.1% 54.5%  9.4%\n",
      "[libx264 @ 0x138010000] mb P  I16..4:  0.6%  0.9%  0.0%  P16..4: 33.1%  6.4%  6.5%  0.0%  0.0%    skip:52.5%\n",
      "[libx264 @ 0x138010000] mb B  I16..4:  0.0%  0.0%  0.0%  B16..8: 16.1%  0.1%  0.0%  direct: 0.0%  skip:83.8%  L0:41.3% L1:58.2% BI: 0.6%\n",
      "[libx264 @ 0x138010000] 8x8 transform intra:56.5% inter:91.1%\n",
      "[libx264 @ 0x138010000] coded y,uvDC,uvAC intra: 49.6% 57.6% 34.9% inter: 3.4% 5.6% 1.4%\n",
      "[libx264 @ 0x138010000] i16 v,h,dc,p: 53% 12%  4% 31%\n",
      "[libx264 @ 0x138010000] i8 v,h,dc,ddl,ddr,vr,hd,vl,hu: 15% 26% 29%  4%  4%  3%  6%  5%  8%\n",
      "[libx264 @ 0x138010000] i4 v,h,dc,ddl,ddr,vr,hd,vl,hu: 22% 24% 16%  4%  7%  7%  6%  7%  7%\n",
      "[libx264 @ 0x138010000] i8c dc,h,v,p: 56% 19% 21%  3%\n",
      "[libx264 @ 0x138010000] Weighted P-Frames: Y:0.0% UV:0.0%\n",
      "[libx264 @ 0x138010000] ref P L0: 65.0%  5.1% 22.6%  7.2%\n",
      "[libx264 @ 0x138010000] ref B L0: 83.3% 13.3%  3.5%\n",
      "[libx264 @ 0x138010000] ref B L1: 94.4%  5.6%\n",
      "[libx264 @ 0x138010000] kb/s:386.93\n",
      "ffmpeg version 4.2.2 Copyright (c) 2000-2019 the FFmpeg developers\n",
      "  built with clang version 12.0.0\n",
      "  configuration: --prefix=/Users/ktietz/demo/mc3/conda-bld/ffmpeg_1628925491858/_h_env_placehold_placehold_placehold_placehold_placehold_placehold_placehold_placehold_placehold_placehold_placehold_placehold_placehold_placehold_placehold_placehold_placehold_placehold_placehold_plac --cc=arm64-apple-darwin20.0.0-clang --disable-doc --enable-avresample --enable-gmp --enable-hardcoded-tables --enable-libfreetype --enable-libvpx --enable-pthreads --enable-libopus --enable-postproc --enable-pic --enable-pthreads --enable-shared --enable-static --enable-version3 --enable-zlib --enable-libmp3lame --disable-nonfree --enable-gpl --enable-gnutls --disable-openssl --enable-libopenh264 --enable-libx264\n",
      "  libavutil      56. 31.100 / 56. 31.100\n",
      "  libavcodec     58. 54.100 / 58. 54.100\n",
      "  libavformat    58. 29.100 / 58. 29.100\n",
      "  libavdevice    58.  8.100 / 58.  8.100\n",
      "  libavfilter     7. 57.100 /  7. 57.100\n",
      "  libavresample   4.  0.  0 /  4.  0.  0\n",
      "  libswscale      5.  5.100 /  5.  5.100\n",
      "  libswresample   3.  5.100 /  3.  5.100\n",
      "  libpostproc    55.  5.100 / 55.  5.100\n",
      "Input #0, avi, from '../data/Fall_Simulation_Data/videos/Fall30_Cam3.avi':\n",
      "  Metadata:\n",
      "    encoder         : Axara Ltd.\n",
      "  Duration: 00:01:50.23, start: 0.000000, bitrate: 717 kb/s\n",
      "    Stream #0:0: Video: mpeg4 (Advanced Simple Profile) (XVID / 0x44495658), yuv420p, 800x480 [SAR 1:1 DAR 5:3], 479 kb/s, 30 fps, 30 tbr, 30 tbn, 30 tbc\n",
      "    Stream #0:1: Audio: mp3 (U[0][0][0] / 0x0055), 44100 Hz, stereo, fltp, 224 kb/s\n",
      "Stream mapping:\n",
      "  Stream #0:0 (mpeg4) -> trim\n",
      "  setpts -> Stream #0:0 (libx264)\n",
      "Press [q] to stop, [?] for help\n",
      "[mpeg4 @ 0x131846400] Video uses a non-standard and wasteful way to store B-frames ('packed B-frames'). Consider using the mpeg4_unpack_bframes bitstream filter without encoding but stream copy to fix it.\n",
      "[libx264 @ 0x131815000] using SAR=1/1\n",
      "[libx264 @ 0x131815000] using cpu capabilities: ARMv8 NEON\n",
      "[libx264 @ 0x131815000] profile High, level 3.1\n",
      "[libx264 @ 0x131815000] 264 - core 152 - H.264/MPEG-4 AVC codec - Copyleft 2003-2017 - http://www.videolan.org/x264.html - options: cabac=1 ref=3 deblock=1:0:0 analyse=0x3:0x113 me=hex subme=7 psy=1 psy_rd=1.00:0.00 mixed_ref=1 me_range=16 chroma_me=1 trellis=1 8x8dct=1 cqm=0 deadzone=21,11 fast_pskip=1 chroma_qp_offset=-2 threads=12 lookahead_threads=2 sliced_threads=0 nr=0 decimate=1 interlaced=0 bluray_compat=0 constrained_intra=0 bframes=3 b_pyramid=2 b_adapt=1 b_bias=0 direct=1 weightb=1 open_gop=0 weightp=2 keyint=250 keyint_min=25 scenecut=40 intra_refresh=0 rc_lookahead=40 rc=crf mbtree=1 crf=23.0 qcomp=0.60 qpmin=0 qpmax=69 qpstep=4 ip_ratio=1.40 aq=1:1.00\n",
      "Output #0, mp4, to '../data/Fall_Simulation_Data/sample_outputs/Fall30_Cam3_93.4_103.4.mp4':\n",
      "  Metadata:\n",
      "    encoder         : Lavf58.29.100\n",
      "    Stream #0:0: Video: h264 (libx264) (avc1 / 0x31637661), yuv420p, 800x480 [SAR 1:1 DAR 5:3], q=-1--1, 30 fps, 15360 tbn, 30 tbc\n",
      "    Metadata:\n",
      "      encoder         : Lavc58.54.100 libx264\n",
      "    Side data:\n",
      "      cpb: bitrate max/min/avg: 0/0/0 buffer size: 0 vbv_delay: -1\n"
     ]
    },
    {
     "name": "stderr",
     "output_type": "stream",
     "text": [
      "frame=  300 fps=0.0 q=-1.0 Lsize=     397kB time=00:00:09.90 bitrate= 328.1kbits/s speed=11.3x    \n",
      "video:392kB audio:0kB subtitle:0kB other streams:0kB global headers:0kB muxing overhead: 1.103588%\n",
      "[libx264 @ 0x131815000] frame I:2     Avg QP:16.08  size: 30048\n",
      "[libx264 @ 0x131815000] frame P:76    Avg QP:19.92  size:  3995\n",
      "[libx264 @ 0x131815000] frame B:222   Avg QP:18.07  size:   168\n",
      "[libx264 @ 0x131815000] consecutive B-frames:  1.0%  0.0%  3.0% 96.0%\n",
      "[libx264 @ 0x131815000] mb I  I16..4: 37.2% 55.0%  7.8%\n",
      "[libx264 @ 0x131815000] mb P  I16..4:  0.4%  0.7%  0.0%  P16..4: 27.8%  5.0%  5.2%  0.0%  0.0%    skip:60.9%\n",
      "[libx264 @ 0x131815000] mb B  I16..4:  0.0%  0.0%  0.0%  B16..8: 11.8%  0.0%  0.0%  direct: 0.0%  skip:88.1%  L0:46.8% L1:52.7% BI: 0.5%\n",
      "[libx264 @ 0x131815000] 8x8 transform intra:57.4% inter:93.3%\n",
      "[libx264 @ 0x131815000] coded y,uvDC,uvAC intra: 51.5% 60.7% 37.5% inter: 2.8% 4.4% 1.3%\n",
      "[libx264 @ 0x131815000] i16 v,h,dc,p: 45% 15%  3% 37%\n",
      "[libx264 @ 0x131815000] i8 v,h,dc,ddl,ddr,vr,hd,vl,hu: 16% 27% 27%  3%  4%  3%  6%  5%  8%\n",
      "[libx264 @ 0x131815000] i4 v,h,dc,ddl,ddr,vr,hd,vl,hu: 26% 21% 16%  4%  6%  7%  7%  6%  7%\n",
      "[libx264 @ 0x131815000] i8c dc,h,v,p: 54% 22% 20%  4%\n",
      "[libx264 @ 0x131815000] Weighted P-Frames: Y:0.0% UV:0.0%\n",
      "[libx264 @ 0x131815000] ref P L0: 73.7%  4.3% 16.5%  5.5%\n",
      "[libx264 @ 0x131815000] ref B L0: 84.2% 14.2%  1.6%\n",
      "[libx264 @ 0x131815000] ref B L1: 94.4%  5.6%\n",
      "[libx264 @ 0x131815000] kb/s:320.74\n",
      "ffmpeg version 4.2.2 Copyright (c) 2000-2019 the FFmpeg developers\n",
      "  built with clang version 12.0.0\n",
      "  configuration: --prefix=/Users/ktietz/demo/mc3/conda-bld/ffmpeg_1628925491858/_h_env_placehold_placehold_placehold_placehold_placehold_placehold_placehold_placehold_placehold_placehold_placehold_placehold_placehold_placehold_placehold_placehold_placehold_placehold_placehold_plac --cc=arm64-apple-darwin20.0.0-clang --disable-doc --enable-avresample --enable-gmp --enable-hardcoded-tables --enable-libfreetype --enable-libvpx --enable-pthreads --enable-libopus --enable-postproc --enable-pic --enable-pthreads --enable-shared --enable-static --enable-version3 --enable-zlib --enable-libmp3lame --disable-nonfree --enable-gpl --enable-gnutls --disable-openssl --enable-libopenh264 --enable-libx264\n",
      "  libavutil      56. 31.100 / 56. 31.100\n",
      "  libavcodec     58. 54.100 / 58. 54.100\n",
      "  libavformat    58. 29.100 / 58. 29.100\n",
      "  libavdevice    58.  8.100 / 58.  8.100\n",
      "  libavfilter     7. 57.100 /  7. 57.100\n",
      "  libavresample   4.  0.  0 /  4.  0.  0\n",
      "  libswscale      5.  5.100 /  5.  5.100\n",
      "  libswresample   3.  5.100 /  3.  5.100\n",
      "  libpostproc    55.  5.100 / 55.  5.100\n",
      "Input #0, avi, from '../data/Fall_Simulation_Data/videos/Fall30_Cam3.avi':\n",
      "  Metadata:\n",
      "    encoder         : Axara Ltd.\n",
      "  Duration: 00:01:50.23, start: 0.000000, bitrate: 717 kb/s\n",
      "    Stream #0:0: Video: mpeg4 (Advanced Simple Profile) (XVID / 0x44495658), yuv420p, 800x480 [SAR 1:1 DAR 5:3], 479 kb/s, 30 fps, 30 tbr, 30 tbn, 30 tbc\n",
      "    Stream #0:1: Audio: mp3 (U[0][0][0] / 0x0055), 44100 Hz, stereo, fltp, 224 kb/s\n",
      "Stream mapping:\n",
      "  Stream #0:0 (mpeg4) -> trim\n",
      "  setpts -> Stream #0:0 (libx264)\n",
      "Press [q] to stop, [?] for help\n",
      "[mpeg4 @ 0x137839800] Video uses a non-standard and wasteful way to store B-frames ('packed B-frames'). Consider using the mpeg4_unpack_bframes bitstream filter without encoding but stream copy to fix it.\n",
      "[libx264 @ 0x13780ca00] using SAR=1/1\n",
      "[libx264 @ 0x13780ca00] using cpu capabilities: ARMv8 NEON\n",
      "[libx264 @ 0x13780ca00] profile High, level 3.1\n",
      "[libx264 @ 0x13780ca00] 264 - core 152 - H.264/MPEG-4 AVC codec - Copyleft 2003-2017 - http://www.videolan.org/x264.html - options: cabac=1 ref=3 deblock=1:0:0 analyse=0x3:0x113 me=hex subme=7 psy=1 psy_rd=1.00:0.00 mixed_ref=1 me_range=16 chroma_me=1 trellis=1 8x8dct=1 cqm=0 deadzone=21,11 fast_pskip=1 chroma_qp_offset=-2 threads=12 lookahead_threads=2 sliced_threads=0 nr=0 decimate=1 interlaced=0 bluray_compat=0 constrained_intra=0 bframes=3 b_pyramid=2 b_adapt=1 b_bias=0 direct=1 weightb=1 open_gop=0 weightp=2 keyint=250 keyint_min=25 scenecut=40 intra_refresh=0 rc_lookahead=40 rc=crf mbtree=1 crf=23.0 qcomp=0.60 qpmin=0 qpmax=69 qpstep=4 ip_ratio=1.40 aq=1:1.00\n",
      "Output #0, mp4, to '../data/Fall_Simulation_Data/sample_outputs/Fall30_Cam3_25.426_35.426.mp4':\n",
      "  Metadata:\n",
      "    encoder         : Lavf58.29.100\n",
      "    Stream #0:0: Video: h264 (libx264) (avc1 / 0x31637661), yuv420p, 800x480 [SAR 1:1 DAR 5:3], q=-1--1, 30 fps, 15360 tbn, 30 tbc\n",
      "    Metadata:\n",
      "      encoder         : Lavc58.54.100 libx264\n",
      "    Side data:\n",
      "      cpb: bitrate max/min/avg: 0/0/0 buffer size: 0 vbv_delay: -1\n",
      "frame=  300 fps=0.0 q=-1.0 Lsize=     409kB time=00:00:09.90 bitrate= 338.8kbits/s speed=20.8x    \n",
      "video:405kB audio:0kB subtitle:0kB other streams:0kB global headers:0kB muxing overhead: 1.072332%\n",
      "[libx264 @ 0x13780ca00] frame I:2     Avg QP:16.01  size: 31388\n",
      "[libx264 @ 0x13780ca00] frame P:76    Avg QP:20.08  size:  4106\n",
      "[libx264 @ 0x13780ca00] frame B:222   Avg QP:17.90  size:   177\n",
      "[libx264 @ 0x13780ca00] consecutive B-frames:  1.3%  0.0%  0.0% 98.7%\n",
      "[libx264 @ 0x13780ca00] mb I  I16..4: 35.0% 55.5%  9.4%\n",
      "[libx264 @ 0x13780ca00] mb P  I16..4:  0.4%  0.5%  0.0%  P16..4: 28.9%  4.9%  5.2%  0.0%  0.0%    skip:60.0%\n",
      "[libx264 @ 0x13780ca00] mb B  I16..4:  0.0%  0.0%  0.0%  B16..8: 11.9%  0.0%  0.0%  direct: 0.0%  skip:88.0%  L0:34.4% L1:65.1% BI: 0.5%\n",
      "[libx264 @ 0x13780ca00] 8x8 transform intra:56.4% inter:93.3%\n",
      "[libx264 @ 0x13780ca00] coded y,uvDC,uvAC intra: 50.9% 61.0% 38.3% inter: 2.8% 4.5% 1.3%\n",
      "[libx264 @ 0x13780ca00] i16 v,h,dc,p: 47% 14%  3% 35%\n",
      "[libx264 @ 0x13780ca00] i8 v,h,dc,ddl,ddr,vr,hd,vl,hu: 16% 24% 25%  4%  5%  4%  7%  5%  9%\n",
      "[libx264 @ 0x13780ca00] i4 v,h,dc,ddl,ddr,vr,hd,vl,hu: 23% 22% 17%  4%  8%  6%  6%  5%  9%\n",
      "[libx264 @ 0x13780ca00] i8c dc,h,v,p: 55% 22% 19%  4%\n",
      "[libx264 @ 0x13780ca00] Weighted P-Frames: Y:0.0% UV:0.0%\n",
      "[libx264 @ 0x13780ca00] ref P L0: 71.8%  4.5% 17.6%  6.1%\n",
      "[libx264 @ 0x13780ca00] ref B L0: 82.0% 15.1%  2.9%\n",
      "[libx264 @ 0x13780ca00] ref B L1: 93.7%  6.3%\n",
      "[libx264 @ 0x13780ca00] kb/s:331.30\n",
      "ffmpeg version 4.2.2 Copyright (c) 2000-2019 the FFmpeg developers\n",
      "  built with clang version 12.0.0\n",
      "  configuration: --prefix=/Users/ktietz/demo/mc3/conda-bld/ffmpeg_1628925491858/_h_env_placehold_placehold_placehold_placehold_placehold_placehold_placehold_placehold_placehold_placehold_placehold_placehold_placehold_placehold_placehold_placehold_placehold_placehold_placehold_plac --cc=arm64-apple-darwin20.0.0-clang --disable-doc --enable-avresample --enable-gmp --enable-hardcoded-tables --enable-libfreetype --enable-libvpx --enable-pthreads --enable-libopus --enable-postproc --enable-pic --enable-pthreads --enable-shared --enable-static --enable-version3 --enable-zlib --enable-libmp3lame --disable-nonfree --enable-gpl --enable-gnutls --disable-openssl --enable-libopenh264 --enable-libx264\n",
      "  libavutil      56. 31.100 / 56. 31.100\n",
      "  libavcodec     58. 54.100 / 58. 54.100\n",
      "  libavformat    58. 29.100 / 58. 29.100\n",
      "  libavdevice    58.  8.100 / 58.  8.100\n",
      "  libavfilter     7. 57.100 /  7. 57.100\n",
      "  libavresample   4.  0.  0 /  4.  0.  0\n",
      "  libswscale      5.  5.100 /  5.  5.100\n",
      "  libswresample   3.  5.100 /  3.  5.100\n",
      "  libpostproc    55.  5.100 / 55.  5.100\n",
      "Input #0, avi, from '../data/Fall_Simulation_Data/videos/Fall30_Cam3.avi':\n",
      "  Metadata:\n",
      "    encoder         : Axara Ltd.\n",
      "  Duration: 00:01:50.23, start: 0.000000, bitrate: 717 kb/s\n",
      "    Stream #0:0: Video: mpeg4 (Advanced Simple Profile) (XVID / 0x44495658), yuv420p, 800x480 [SAR 1:1 DAR 5:3], 479 kb/s, 30 fps, 30 tbr, 30 tbn, 30 tbc\n",
      "    Stream #0:1: Audio: mp3 (U[0][0][0] / 0x0055), 44100 Hz, stereo, fltp, 224 kb/s\n",
      "Stream mapping:\n",
      "  Stream #0:0 (mpeg4) -> trim\n",
      "  setpts -> Stream #0:0 (libx264)\n",
      "Press [q] to stop, [?] for help\n",
      "[mpeg4 @ 0x144846400] Video uses a non-standard and wasteful way to store B-frames ('packed B-frames'). Consider using the mpeg4_unpack_bframes bitstream filter without encoding but stream copy to fix it.\n",
      "[libx264 @ 0x144815000] using SAR=1/1\n",
      "[libx264 @ 0x144815000] using cpu capabilities: ARMv8 NEON\n",
      "[libx264 @ 0x144815000] profile High, level 3.1\n",
      "[libx264 @ 0x144815000] 264 - core 152 - H.264/MPEG-4 AVC codec - Copyleft 2003-2017 - http://www.videolan.org/x264.html - options: cabac=1 ref=3 deblock=1:0:0 analyse=0x3:0x113 me=hex subme=7 psy=1 psy_rd=1.00:0.00 mixed_ref=1 me_range=16 chroma_me=1 trellis=1 8x8dct=1 cqm=0 deadzone=21,11 fast_pskip=1 chroma_qp_offset=-2 threads=12 lookahead_threads=2 sliced_threads=0 nr=0 decimate=1 interlaced=0 bluray_compat=0 constrained_intra=0 bframes=3 b_pyramid=2 b_adapt=1 b_bias=0 direct=1 weightb=1 open_gop=0 weightp=2 keyint=250 keyint_min=25 scenecut=40 intra_refresh=0 rc_lookahead=40 rc=crf mbtree=1 crf=23.0 qcomp=0.60 qpmin=0 qpmax=69 qpstep=4 ip_ratio=1.40 aq=1:1.00\n",
      "Output #0, mp4, to '../data/Fall_Simulation_Data/sample_outputs/Fall30_Cam3_26.595_36.595.mp4':\n",
      "  Metadata:\n",
      "    encoder         : Lavf58.29.100\n",
      "    Stream #0:0: Video: h264 (libx264) (avc1 / 0x31637661), yuv420p, 800x480 [SAR 1:1 DAR 5:3], q=-1--1, 30 fps, 15360 tbn, 30 tbc\n",
      "    Metadata:\n",
      "      encoder         : Lavc58.54.100 libx264\n",
      "    Side data:\n",
      "      cpb: bitrate max/min/avg: 0/0/0 buffer size: 0 vbv_delay: -1\n"
     ]
    },
    {
     "name": "stderr",
     "output_type": "stream",
     "text": [
      "frame=  300 fps=0.0 q=-1.0 Lsize=     408kB time=00:00:09.90 bitrate= 337.4kbits/s speed=20.6x    \n",
      "video:403kB audio:0kB subtitle:0kB other streams:0kB global headers:0kB muxing overhead: 1.076609%\n",
      "[libx264 @ 0x144815000] frame I:2     Avg QP:16.07  size: 31897\n",
      "[libx264 @ 0x144815000] frame P:76    Avg QP:20.11  size:  4067\n",
      "[libx264 @ 0x144815000] frame B:222   Avg QP:18.26  size:   178\n",
      "[libx264 @ 0x144815000] consecutive B-frames:  1.0%  0.7%  1.0% 97.3%\n",
      "[libx264 @ 0x144815000] mb I  I16..4: 35.9% 53.3% 10.8%\n",
      "[libx264 @ 0x144815000] mb P  I16..4:  0.4%  0.4%  0.0%  P16..4: 28.3%  4.9%  5.3%  0.0%  0.0%    skip:60.7%\n",
      "[libx264 @ 0x144815000] mb B  I16..4:  0.0%  0.0%  0.0%  B16..8: 12.5%  0.0%  0.0%  direct: 0.0%  skip:87.5%  L0:52.2% L1:47.2% BI: 0.5%\n",
      "[libx264 @ 0x144815000] 8x8 transform intra:53.2% inter:93.3%\n",
      "[libx264 @ 0x144815000] coded y,uvDC,uvAC intra: 49.4% 60.0% 39.2% inter: 2.9% 4.5% 1.3%\n",
      "[libx264 @ 0x144815000] i16 v,h,dc,p: 45% 14%  3% 38%\n",
      "[libx264 @ 0x144815000] i8 v,h,dc,ddl,ddr,vr,hd,vl,hu: 15% 25% 25%  4%  5%  4%  7%  6%  9%\n",
      "[libx264 @ 0x144815000] i4 v,h,dc,ddl,ddr,vr,hd,vl,hu: 24% 20% 15%  4%  7%  6%  7%  7%  8%\n",
      "[libx264 @ 0x144815000] i8c dc,h,v,p: 56% 21% 20%  3%\n",
      "[libx264 @ 0x144815000] Weighted P-Frames: Y:0.0% UV:0.0%\n",
      "[libx264 @ 0x144815000] ref P L0: 73.0%  4.1% 16.4%  6.5%\n",
      "[libx264 @ 0x144815000] ref B L0: 85.1% 13.3%  1.6%\n",
      "[libx264 @ 0x144815000] ref B L1: 95.7%  4.3%\n",
      "[libx264 @ 0x144815000] kb/s:329.98\n",
      "ffmpeg version 4.2.2 Copyright (c) 2000-2019 the FFmpeg developers\n",
      "  built with clang version 12.0.0\n",
      "  configuration: --prefix=/Users/ktietz/demo/mc3/conda-bld/ffmpeg_1628925491858/_h_env_placehold_placehold_placehold_placehold_placehold_placehold_placehold_placehold_placehold_placehold_placehold_placehold_placehold_placehold_placehold_placehold_placehold_placehold_placehold_plac --cc=arm64-apple-darwin20.0.0-clang --disable-doc --enable-avresample --enable-gmp --enable-hardcoded-tables --enable-libfreetype --enable-libvpx --enable-pthreads --enable-libopus --enable-postproc --enable-pic --enable-pthreads --enable-shared --enable-static --enable-version3 --enable-zlib --enable-libmp3lame --disable-nonfree --enable-gpl --enable-gnutls --disable-openssl --enable-libopenh264 --enable-libx264\n",
      "  libavutil      56. 31.100 / 56. 31.100\n",
      "  libavcodec     58. 54.100 / 58. 54.100\n",
      "  libavformat    58. 29.100 / 58. 29.100\n",
      "  libavdevice    58.  8.100 / 58.  8.100\n",
      "  libavfilter     7. 57.100 /  7. 57.100\n",
      "  libavresample   4.  0.  0 /  4.  0.  0\n",
      "  libswscale      5.  5.100 /  5.  5.100\n",
      "  libswresample   3.  5.100 /  3.  5.100\n",
      "  libpostproc    55.  5.100 / 55.  5.100\n",
      "Input #0, avi, from '../data/Fall_Simulation_Data/videos/Fall30_Cam3.avi':\n",
      "  Metadata:\n",
      "    encoder         : Axara Ltd.\n",
      "  Duration: 00:01:50.23, start: 0.000000, bitrate: 717 kb/s\n",
      "    Stream #0:0: Video: mpeg4 (Advanced Simple Profile) (XVID / 0x44495658), yuv420p, 800x480 [SAR 1:1 DAR 5:3], 479 kb/s, 30 fps, 30 tbr, 30 tbn, 30 tbc\n",
      "    Stream #0:1: Audio: mp3 (U[0][0][0] / 0x0055), 44100 Hz, stereo, fltp, 224 kb/s\n",
      "Stream mapping:\n",
      "  Stream #0:0 (mpeg4) -> trim\n",
      "  setpts -> Stream #0:0 (libx264)\n",
      "Press [q] to stop, [?] for help\n",
      "[mpeg4 @ 0x11c846400] Video uses a non-standard and wasteful way to store B-frames ('packed B-frames'). Consider using the mpeg4_unpack_bframes bitstream filter without encoding but stream copy to fix it.\n",
      "[libx264 @ 0x11c815000] using SAR=1/1\n",
      "[libx264 @ 0x11c815000] using cpu capabilities: ARMv8 NEON\n",
      "[libx264 @ 0x11c815000] profile High, level 3.1\n",
      "[libx264 @ 0x11c815000] 264 - core 152 - H.264/MPEG-4 AVC codec - Copyleft 2003-2017 - http://www.videolan.org/x264.html - options: cabac=1 ref=3 deblock=1:0:0 analyse=0x3:0x113 me=hex subme=7 psy=1 psy_rd=1.00:0.00 mixed_ref=1 me_range=16 chroma_me=1 trellis=1 8x8dct=1 cqm=0 deadzone=21,11 fast_pskip=1 chroma_qp_offset=-2 threads=12 lookahead_threads=2 sliced_threads=0 nr=0 decimate=1 interlaced=0 bluray_compat=0 constrained_intra=0 bframes=3 b_pyramid=2 b_adapt=1 b_bias=0 direct=1 weightb=1 open_gop=0 weightp=2 keyint=250 keyint_min=25 scenecut=40 intra_refresh=0 rc_lookahead=40 rc=crf mbtree=1 crf=23.0 qcomp=0.60 qpmin=0 qpmax=69 qpstep=4 ip_ratio=1.40 aq=1:1.00\n",
      "Output #0, mp4, to '../data/Fall_Simulation_Data/sample_outputs/Fall30_Cam3_24.469_34.469.mp4':\n",
      "  Metadata:\n",
      "    encoder         : Lavf58.29.100\n",
      "    Stream #0:0: Video: h264 (libx264) (avc1 / 0x31637661), yuv420p, 800x480 [SAR 1:1 DAR 5:3], q=-1--1, 30 fps, 15360 tbn, 30 tbc\n",
      "    Metadata:\n",
      "      encoder         : Lavc58.54.100 libx264\n",
      "    Side data:\n",
      "      cpb: bitrate max/min/avg: 0/0/0 buffer size: 0 vbv_delay: -1\n",
      "frame=  300 fps=0.0 q=-1.0 Lsize=     417kB time=00:00:09.90 bitrate= 344.7kbits/s speed=20.2x    \n",
      "video:412kB audio:0kB subtitle:0kB other streams:0kB global headers:0kB muxing overhead: 1.053826%\n",
      "[libx264 @ 0x11c815000] frame I:2     Avg QP:16.10  size: 30980\n",
      "[libx264 @ 0x11c815000] frame P:76    Avg QP:20.20  size:  4169\n",
      "[libx264 @ 0x11c815000] frame B:222   Avg QP:18.57  size:   192\n",
      "[libx264 @ 0x11c815000] consecutive B-frames:  1.0%  0.7%  1.0% 97.3%\n",
      "[libx264 @ 0x11c815000] mb I  I16..4: 35.6% 54.3% 10.1%\n",
      "[libx264 @ 0x11c815000] mb P  I16..4:  0.5%  0.6%  0.0%  P16..4: 28.5%  4.9%  5.4%  0.0%  0.0%    skip:60.1%\n",
      "[libx264 @ 0x11c815000] mb B  I16..4:  0.0%  0.0%  0.0%  B16..8: 13.0%  0.0%  0.0%  direct: 0.0%  skip:86.9%  L0:51.0% L1:48.4% BI: 0.6%\n",
      "[libx264 @ 0x11c815000] 8x8 transform intra:54.6% inter:92.2%\n",
      "[libx264 @ 0x11c815000] coded y,uvDC,uvAC intra: 49.7% 60.1% 37.1% inter: 2.9% 4.5% 1.3%\n",
      "[libx264 @ 0x11c815000] i16 v,h,dc,p: 46% 16%  3% 36%\n",
      "[libx264 @ 0x11c815000] i8 v,h,dc,ddl,ddr,vr,hd,vl,hu: 16% 25% 24%  4%  5%  4%  7%  6%  9%\n",
      "[libx264 @ 0x11c815000] i4 v,h,dc,ddl,ddr,vr,hd,vl,hu: 21% 22% 17%  5%  7%  6%  7%  5%  8%\n",
      "[libx264 @ 0x11c815000] i8c dc,h,v,p: 55% 22% 20%  4%\n",
      "[libx264 @ 0x11c815000] Weighted P-Frames: Y:0.0% UV:0.0%\n",
      "[libx264 @ 0x11c815000] ref P L0: 71.9%  4.3% 17.4%  6.4%\n",
      "[libx264 @ 0x11c815000] ref B L0: 85.3% 12.9%  1.8%\n",
      "[libx264 @ 0x11c815000] ref B L1: 95.1%  4.9%\n",
      "[libx264 @ 0x11c815000] kb/s:337.12\n",
      "ffmpeg version 4.2.2 Copyright (c) 2000-2019 the FFmpeg developers\n",
      "  built with clang version 12.0.0\n",
      "  configuration: --prefix=/Users/ktietz/demo/mc3/conda-bld/ffmpeg_1628925491858/_h_env_placehold_placehold_placehold_placehold_placehold_placehold_placehold_placehold_placehold_placehold_placehold_placehold_placehold_placehold_placehold_placehold_placehold_placehold_placehold_plac --cc=arm64-apple-darwin20.0.0-clang --disable-doc --enable-avresample --enable-gmp --enable-hardcoded-tables --enable-libfreetype --enable-libvpx --enable-pthreads --enable-libopus --enable-postproc --enable-pic --enable-pthreads --enable-shared --enable-static --enable-version3 --enable-zlib --enable-libmp3lame --disable-nonfree --enable-gpl --enable-gnutls --disable-openssl --enable-libopenh264 --enable-libx264\n",
      "  libavutil      56. 31.100 / 56. 31.100\n",
      "  libavcodec     58. 54.100 / 58. 54.100\n",
      "  libavformat    58. 29.100 / 58. 29.100\n",
      "  libavdevice    58.  8.100 / 58.  8.100\n",
      "  libavfilter     7. 57.100 /  7. 57.100\n",
      "  libavresample   4.  0.  0 /  4.  0.  0\n",
      "  libswscale      5.  5.100 /  5.  5.100\n",
      "  libswresample   3.  5.100 /  3.  5.100\n",
      "  libpostproc    55.  5.100 / 55.  5.100\n",
      "Input #0, avi, from '../data/Fall_Simulation_Data/videos/Fall30_Cam3.avi':\n",
      "  Metadata:\n",
      "    encoder         : Axara Ltd.\n",
      "  Duration: 00:01:50.23, start: 0.000000, bitrate: 717 kb/s\n",
      "    Stream #0:0: Video: mpeg4 (Advanced Simple Profile) (XVID / 0x44495658), yuv420p, 800x480 [SAR 1:1 DAR 5:3], 479 kb/s, 30 fps, 30 tbr, 30 tbn, 30 tbc\n",
      "    Stream #0:1: Audio: mp3 (U[0][0][0] / 0x0055), 44100 Hz, stereo, fltp, 224 kb/s\n",
      "Stream mapping:\n",
      "  Stream #0:0 (mpeg4) -> trim\n",
      "  setpts -> Stream #0:0 (libx264)\n",
      "Press [q] to stop, [?] for help\n",
      "[mpeg4 @ 0x128846400] Video uses a non-standard and wasteful way to store B-frames ('packed B-frames'). Consider using the mpeg4_unpack_bframes bitstream filter without encoding but stream copy to fix it.\n",
      "[libx264 @ 0x128815000] using SAR=1/1\n",
      "[libx264 @ 0x128815000] using cpu capabilities: ARMv8 NEON\n",
      "[libx264 @ 0x128815000] profile High, level 3.1\n",
      "[libx264 @ 0x128815000] 264 - core 152 - H.264/MPEG-4 AVC codec - Copyleft 2003-2017 - http://www.videolan.org/x264.html - options: cabac=1 ref=3 deblock=1:0:0 analyse=0x3:0x113 me=hex subme=7 psy=1 psy_rd=1.00:0.00 mixed_ref=1 me_range=16 chroma_me=1 trellis=1 8x8dct=1 cqm=0 deadzone=21,11 fast_pskip=1 chroma_qp_offset=-2 threads=12 lookahead_threads=2 sliced_threads=0 nr=0 decimate=1 interlaced=0 bluray_compat=0 constrained_intra=0 bframes=3 b_pyramid=2 b_adapt=1 b_bias=0 direct=1 weightb=1 open_gop=0 weightp=2 keyint=250 keyint_min=25 scenecut=40 intra_refresh=0 rc_lookahead=40 rc=crf mbtree=1 crf=23.0 qcomp=0.60 qpmin=0 qpmax=69 qpstep=4 ip_ratio=1.40 aq=1:1.00\n",
      "Output #0, mp4, to '../data/Fall_Simulation_Data/sample_outputs/Fall30_Cam3_43.43_53.43.mp4':\n",
      "  Metadata:\n",
      "    encoder         : Lavf58.29.100\n",
      "    Stream #0:0: Video: h264 (libx264) (avc1 / 0x31637661), yuv420p, 800x480 [SAR 1:1 DAR 5:3], q=-1--1, 30 fps, 15360 tbn, 30 tbc\n",
      "    Metadata:\n",
      "      encoder         : Lavc58.54.100 libx264\n",
      "    Side data:\n",
      "      cpb: bitrate max/min/avg: 0/0/0 buffer size: 0 vbv_delay: -1\n"
     ]
    },
    {
     "name": "stderr",
     "output_type": "stream",
     "text": [
      "frame=  300 fps=0.0 q=-1.0 Lsize=     388kB time=00:00:09.90 bitrate= 321.4kbits/s speed=  18x    \n",
      "video:384kB audio:0kB subtitle:0kB other streams:0kB global headers:0kB muxing overhead: 1.130975%\n",
      "[libx264 @ 0x128815000] frame I:2     Avg QP:15.96  size: 31726\n",
      "[libx264 @ 0x128815000] frame P:76    Avg QP:19.82  size:  3906\n",
      "[libx264 @ 0x128815000] frame B:222   Avg QP:17.15  size:   146\n",
      "[libx264 @ 0x128815000] consecutive B-frames:  1.3%  0.0%  0.0% 98.7%\n",
      "[libx264 @ 0x128815000] mb I  I16..4: 36.5% 55.0%  8.5%\n",
      "[libx264 @ 0x128815000] mb P  I16..4:  0.4%  0.6%  0.0%  P16..4: 27.5%  4.5%  5.0%  0.0%  0.0%    skip:62.0%\n",
      "[libx264 @ 0x128815000] mb B  I16..4:  0.0%  0.0%  0.0%  B16..8: 10.4%  0.0%  0.0%  direct: 0.0%  skip:89.5%  L0:39.7% L1:59.8% BI: 0.6%\n",
      "[libx264 @ 0x128815000] 8x8 transform intra:56.9% inter:94.0%\n",
      "[libx264 @ 0x128815000] coded y,uvDC,uvAC intra: 52.1% 61.9% 39.1% inter: 2.7% 4.1% 1.3%\n",
      "[libx264 @ 0x128815000] i16 v,h,dc,p: 45% 15%  3% 37%\n",
      "[libx264 @ 0x128815000] i8 v,h,dc,ddl,ddr,vr,hd,vl,hu: 16% 26% 26%  4%  4%  4%  7%  5%  8%\n",
      "[libx264 @ 0x128815000] i4 v,h,dc,ddl,ddr,vr,hd,vl,hu: 24% 21% 18%  5%  7%  6%  6%  6%  8%\n",
      "[libx264 @ 0x128815000] i8c dc,h,v,p: 54% 22% 20%  4%\n",
      "[libx264 @ 0x128815000] Weighted P-Frames: Y:0.0% UV:0.0%\n",
      "[libx264 @ 0x128815000] ref P L0: 75.5%  4.0% 14.4%  6.0%\n",
      "[libx264 @ 0x128815000] ref B L0: 85.6% 12.1%  2.3%\n",
      "[libx264 @ 0x128815000] ref B L1: 95.3%  4.7%\n",
      "[libx264 @ 0x128815000] kb/s:314.09\n",
      "ffmpeg version 4.2.2 Copyright (c) 2000-2019 the FFmpeg developers\n",
      "  built with clang version 12.0.0\n",
      "  configuration: --prefix=/Users/ktietz/demo/mc3/conda-bld/ffmpeg_1628925491858/_h_env_placehold_placehold_placehold_placehold_placehold_placehold_placehold_placehold_placehold_placehold_placehold_placehold_placehold_placehold_placehold_placehold_placehold_placehold_placehold_plac --cc=arm64-apple-darwin20.0.0-clang --disable-doc --enable-avresample --enable-gmp --enable-hardcoded-tables --enable-libfreetype --enable-libvpx --enable-pthreads --enable-libopus --enable-postproc --enable-pic --enable-pthreads --enable-shared --enable-static --enable-version3 --enable-zlib --enable-libmp3lame --disable-nonfree --enable-gpl --enable-gnutls --disable-openssl --enable-libopenh264 --enable-libx264\n",
      "  libavutil      56. 31.100 / 56. 31.100\n",
      "  libavcodec     58. 54.100 / 58. 54.100\n",
      "  libavformat    58. 29.100 / 58. 29.100\n",
      "  libavdevice    58.  8.100 / 58.  8.100\n",
      "  libavfilter     7. 57.100 /  7. 57.100\n",
      "  libavresample   4.  0.  0 /  4.  0.  0\n",
      "  libswscale      5.  5.100 /  5.  5.100\n",
      "  libswresample   3.  5.100 /  3.  5.100\n",
      "  libpostproc    55.  5.100 / 55.  5.100\n",
      "Input #0, avi, from '../data/Fall_Simulation_Data/videos/Fall30_Cam3.avi':\n",
      "  Metadata:\n",
      "    encoder         : Axara Ltd.\n",
      "  Duration: 00:01:50.23, start: 0.000000, bitrate: 717 kb/s\n",
      "    Stream #0:0: Video: mpeg4 (Advanced Simple Profile) (XVID / 0x44495658), yuv420p, 800x480 [SAR 1:1 DAR 5:3], 479 kb/s, 30 fps, 30 tbr, 30 tbn, 30 tbc\n",
      "    Stream #0:1: Audio: mp3 (U[0][0][0] / 0x0055), 44100 Hz, stereo, fltp, 224 kb/s\n",
      "Stream mapping:\n",
      "  Stream #0:0 (mpeg4) -> trim\n",
      "  setpts -> Stream #0:0 (libx264)\n",
      "Press [q] to stop, [?] for help\n",
      "[mpeg4 @ 0x11b017200] Video uses a non-standard and wasteful way to store B-frames ('packed B-frames'). Consider using the mpeg4_unpack_bframes bitstream filter without encoding but stream copy to fix it.\n",
      "[libx264 @ 0x12b80ca00] using SAR=1/1\n",
      "[libx264 @ 0x12b80ca00] using cpu capabilities: ARMv8 NEON\n",
      "[libx264 @ 0x12b80ca00] profile High, level 3.1\n",
      "[libx264 @ 0x12b80ca00] 264 - core 152 - H.264/MPEG-4 AVC codec - Copyleft 2003-2017 - http://www.videolan.org/x264.html - options: cabac=1 ref=3 deblock=1:0:0 analyse=0x3:0x113 me=hex subme=7 psy=1 psy_rd=1.00:0.00 mixed_ref=1 me_range=16 chroma_me=1 trellis=1 8x8dct=1 cqm=0 deadzone=21,11 fast_pskip=1 chroma_qp_offset=-2 threads=12 lookahead_threads=2 sliced_threads=0 nr=0 decimate=1 interlaced=0 bluray_compat=0 constrained_intra=0 bframes=3 b_pyramid=2 b_adapt=1 b_bias=0 direct=1 weightb=1 open_gop=0 weightp=2 keyint=250 keyint_min=25 scenecut=40 intra_refresh=0 rc_lookahead=40 rc=crf mbtree=1 crf=23.0 qcomp=0.60 qpmin=0 qpmax=69 qpstep=4 ip_ratio=1.40 aq=1:1.00\n",
      "Output #0, mp4, to '../data/Fall_Simulation_Data/sample_outputs/Fall30_Cam3_60.293_70.293.mp4':\n",
      "  Metadata:\n",
      "    encoder         : Lavf58.29.100\n",
      "    Stream #0:0: Video: h264 (libx264) (avc1 / 0x31637661), yuv420p, 800x480 [SAR 1:1 DAR 5:3], q=-1--1, 30 fps, 15360 tbn, 30 tbc\n",
      "    Metadata:\n",
      "      encoder         : Lavc58.54.100 libx264\n",
      "    Side data:\n",
      "      cpb: bitrate max/min/avg: 0/0/0 buffer size: 0 vbv_delay: -1\n",
      "frame=  300 fps=0.0 q=-1.0 Lsize=     437kB time=00:00:09.90 bitrate= 361.8kbits/s speed=  15x    \n",
      "video:433kB audio:0kB subtitle:0kB other streams:0kB global headers:0kB muxing overhead: 1.003375%\n",
      "[libx264 @ 0x12b80ca00] frame I:2     Avg QP:16.31  size: 31785\n",
      "[libx264 @ 0x12b80ca00] frame P:76    Avg QP:20.38  size:  4438\n",
      "[libx264 @ 0x12b80ca00] frame B:222   Avg QP:18.63  size:   188\n",
      "[libx264 @ 0x12b80ca00] consecutive B-frames:  1.3%  0.0%  0.0% 98.7%\n",
      "[libx264 @ 0x12b80ca00] mb I  I16..4: 35.5% 56.6%  7.9%\n",
      "[libx264 @ 0x12b80ca00] mb P  I16..4:  0.4%  0.3%  0.0%  P16..4: 30.8%  5.7%  6.1%  0.0%  0.0%    skip:56.8%\n",
      "[libx264 @ 0x12b80ca00] mb B  I16..4:  0.0%  0.0%  0.0%  B16..8: 13.3%  0.0%  0.0%  direct: 0.0%  skip:86.7%  L0:44.7% L1:54.9% BI: 0.4%\n",
      "[libx264 @ 0x12b80ca00] 8x8 transform intra:55.3% inter:93.3%\n",
      "[libx264 @ 0x12b80ca00] coded y,uvDC,uvAC intra: 47.9% 58.6% 37.0% inter: 3.2% 5.0% 1.4%\n",
      "[libx264 @ 0x12b80ca00] i16 v,h,dc,p: 47% 15%  3% 35%\n",
      "[libx264 @ 0x12b80ca00] i8 v,h,dc,ddl,ddr,vr,hd,vl,hu: 16% 25% 27%  4%  4%  4%  7%  5%  8%\n",
      "[libx264 @ 0x12b80ca00] i4 v,h,dc,ddl,ddr,vr,hd,vl,hu: 17% 21% 18%  5% 10%  6%  9%  6%  9%\n",
      "[libx264 @ 0x12b80ca00] i8c dc,h,v,p: 55% 21% 20%  3%\n",
      "[libx264 @ 0x12b80ca00] Weighted P-Frames: Y:0.0% UV:0.0%\n",
      "[libx264 @ 0x12b80ca00] ref P L0: 69.5%  4.3% 19.5%  6.7%\n",
      "[libx264 @ 0x12b80ca00] ref B L0: 86.2% 11.6%  2.2%\n",
      "[libx264 @ 0x12b80ca00] ref B L1: 95.1%  4.9%\n",
      "[libx264 @ 0x12b80ca00] kb/s:354.10\n",
      "ffmpeg version 4.2.2 Copyright (c) 2000-2019 the FFmpeg developers\n",
      "  built with clang version 12.0.0\n",
      "  configuration: --prefix=/Users/ktietz/demo/mc3/conda-bld/ffmpeg_1628925491858/_h_env_placehold_placehold_placehold_placehold_placehold_placehold_placehold_placehold_placehold_placehold_placehold_placehold_placehold_placehold_placehold_placehold_placehold_placehold_placehold_plac --cc=arm64-apple-darwin20.0.0-clang --disable-doc --enable-avresample --enable-gmp --enable-hardcoded-tables --enable-libfreetype --enable-libvpx --enable-pthreads --enable-libopus --enable-postproc --enable-pic --enable-pthreads --enable-shared --enable-static --enable-version3 --enable-zlib --enable-libmp3lame --disable-nonfree --enable-gpl --enable-gnutls --disable-openssl --enable-libopenh264 --enable-libx264\n",
      "  libavutil      56. 31.100 / 56. 31.100\n",
      "  libavcodec     58. 54.100 / 58. 54.100\n",
      "  libavformat    58. 29.100 / 58. 29.100\n",
      "  libavdevice    58.  8.100 / 58.  8.100\n",
      "  libavfilter     7. 57.100 /  7. 57.100\n",
      "  libavresample   4.  0.  0 /  4.  0.  0\n",
      "  libswscale      5.  5.100 /  5.  5.100\n",
      "  libswresample   3.  5.100 /  3.  5.100\n",
      "  libpostproc    55.  5.100 / 55.  5.100\n",
      "Input #0, avi, from '../data/Fall_Simulation_Data/videos/Fall30_Cam3.avi':\n",
      "  Metadata:\n",
      "    encoder         : Axara Ltd.\n",
      "  Duration: 00:01:50.23, start: 0.000000, bitrate: 717 kb/s\n",
      "    Stream #0:0: Video: mpeg4 (Advanced Simple Profile) (XVID / 0x44495658), yuv420p, 800x480 [SAR 1:1 DAR 5:3], 479 kb/s, 30 fps, 30 tbr, 30 tbn, 30 tbc\n",
      "    Stream #0:1: Audio: mp3 (U[0][0][0] / 0x0055), 44100 Hz, stereo, fltp, 224 kb/s\n",
      "Stream mapping:\n",
      "  Stream #0:0 (mpeg4) -> trim\n",
      "  setpts -> Stream #0:0 (libx264)\n",
      "Press [q] to stop, [?] for help\n",
      "[mpeg4 @ 0x129839800] Video uses a non-standard and wasteful way to store B-frames ('packed B-frames'). Consider using the mpeg4_unpack_bframes bitstream filter without encoding but stream copy to fix it.\n",
      "[libx264 @ 0x12980ca00] using SAR=1/1\n",
      "[libx264 @ 0x12980ca00] using cpu capabilities: ARMv8 NEON\n",
      "[libx264 @ 0x12980ca00] profile High, level 3.1\n",
      "[libx264 @ 0x12980ca00] 264 - core 152 - H.264/MPEG-4 AVC codec - Copyleft 2003-2017 - http://www.videolan.org/x264.html - options: cabac=1 ref=3 deblock=1:0:0 analyse=0x3:0x113 me=hex subme=7 psy=1 psy_rd=1.00:0.00 mixed_ref=1 me_range=16 chroma_me=1 trellis=1 8x8dct=1 cqm=0 deadzone=21,11 fast_pskip=1 chroma_qp_offset=-2 threads=12 lookahead_threads=2 sliced_threads=0 nr=0 decimate=1 interlaced=0 bluray_compat=0 constrained_intra=0 bframes=3 b_pyramid=2 b_adapt=1 b_bias=0 direct=1 weightb=1 open_gop=0 weightp=2 keyint=250 keyint_min=25 scenecut=40 intra_refresh=0 rc_lookahead=40 rc=crf mbtree=1 crf=23.0 qcomp=0.60 qpmin=0 qpmax=69 qpstep=4 ip_ratio=1.40 aq=1:1.00\n",
      "Output #0, mp4, to '../data/Fall_Simulation_Data/sample_outputs/Fall30_Cam3_61.25_71.25.mp4':\n",
      "  Metadata:\n",
      "    encoder         : Lavf58.29.100\n",
      "    Stream #0:0: Video: h264 (libx264) (avc1 / 0x31637661), yuv420p, 800x480 [SAR 1:1 DAR 5:3], q=-1--1, 30 fps, 15360 tbn, 30 tbc\n",
      "    Metadata:\n",
      "      encoder         : Lavc58.54.100 libx264\n",
      "    Side data:\n",
      "      cpb: bitrate max/min/avg: 0/0/0 buffer size: 0 vbv_delay: -1\n"
     ]
    },
    {
     "name": "stderr",
     "output_type": "stream",
     "text": [
      "frame=  196 fps=0.0 q=29.0 size=       0kB time=00:00:04.56 bitrate=   0.1kbits/s speed=9.12x    \r",
      "frame=  300 fps=0.0 q=-1.0 Lsize=     456kB time=00:00:09.90 bitrate= 377.7kbits/s speed=14.8x    \n",
      "video:452kB audio:0kB subtitle:0kB other streams:0kB global headers:0kB muxing overhead: 0.960843%\n",
      "[libx264 @ 0x12980ca00] frame I:2     Avg QP:16.45  size: 30715\n",
      "[libx264 @ 0x12980ca00] frame P:76    Avg QP:20.55  size:  4708\n",
      "[libx264 @ 0x12980ca00] frame B:222   Avg QP:18.92  size:   194\n",
      "[libx264 @ 0x12980ca00] consecutive B-frames:  1.3%  0.0%  0.0% 98.7%\n",
      "[libx264 @ 0x12980ca00] mb I  I16..4: 37.9% 52.4%  9.7%\n",
      "[libx264 @ 0x12980ca00] mb P  I16..4:  0.4%  0.3%  0.0%  P16..4: 31.6%  5.9%  6.6%  0.0%  0.0%    skip:55.1%\n",
      "[libx264 @ 0x12980ca00] mb B  I16..4:  0.0%  0.0%  0.0%  B16..8: 14.1%  0.0%  0.0%  direct: 0.0%  skip:85.8%  L0:45.3% L1:54.3% BI: 0.4%\n",
      "[libx264 @ 0x12980ca00] 8x8 transform intra:51.7% inter:92.9%\n",
      "[libx264 @ 0x12980ca00] coded y,uvDC,uvAC intra: 46.8% 57.1% 35.7% inter: 3.4% 5.3% 1.5%\n",
      "[libx264 @ 0x12980ca00] i16 v,h,dc,p: 45% 16%  2% 36%\n",
      "[libx264 @ 0x12980ca00] i8 v,h,dc,ddl,ddr,vr,hd,vl,hu: 16% 24% 26%  4%  5%  4%  7%  6%  9%\n",
      "[libx264 @ 0x12980ca00] i4 v,h,dc,ddl,ddr,vr,hd,vl,hu: 20% 21% 18%  5%  7%  5%  9%  5% 10%\n",
      "[libx264 @ 0x12980ca00] i8c dc,h,v,p: 56% 21% 20%  3%\n",
      "[libx264 @ 0x12980ca00] Weighted P-Frames: Y:0.0% UV:0.0%\n",
      "[libx264 @ 0x12980ca00] ref P L0: 68.3%  4.4% 20.6%  6.7%\n",
      "[libx264 @ 0x12980ca00] ref B L0: 86.4% 11.5%  2.1%\n",
      "[libx264 @ 0x12980ca00] ref B L1: 95.2%  4.8%\n",
      "[libx264 @ 0x12980ca00] kb/s:369.80\n",
      "INFO:__main__:Videos trimming completed successfully.\n"
     ]
    }
   ],
   "source": [
    "strat = Sampler(\"nothingfornow\", \"../data/Fall_Simulation_Data/annotations.csv\")\n",
    "\n",
    "strat.stratifiedSampling(\"../data/Fall_Simulation_Data/sample_outputs/\", samples_per_min=3)"
   ]
  },
  {
   "cell_type": "markdown",
   "id": "81c1ef7a",
   "metadata": {},
   "source": [
    "### "
   ]
  },
  {
   "cell_type": "markdown",
   "id": "4ba69d3a",
   "metadata": {},
   "source": [
    "# Saved print-outs\n",
    "print('ADL1 time: ', ADL1_time)\n",
    "print('ADL2 time: ', ADL2_time)\n",
    "print('Total ADL time: ', ADL_time)\n",
    "print('Fall time: ', fall_time)\n",
    "print('Lying time: ', lying_time)\n",
    "\n",
    "print(\"n samples: \", n_samples)\n",
    "print(\"n ADL samples: \", n_ADL_samples)\n",
    "print(\"n lying samples: \", n_lying_samples)\n",
    "print(\"n ADL1 samples: \", n_ADL1_samples)\n",
    "print(\"n ADL2 samples: \", n_ADL2_samples)\n",
    "\n",
    "print(\"ADL1_samples: \", ADL1_samples)\n",
    "print(\"ADL2_samples: \", ADL2_samples)\n",
    "print(\"fall_samples: \", fall_samples)\n",
    "print(\"lying_samples: \", lying_samples)\n",
    "\n",
    "print(f'Video path: {df.loc[i, \"video_path\"]}')\n",
    "print(\"ADL1_samples: \", ADL1_samples)\n",
    "print(\"ADL2_samples: \", ADL2_samples)\n",
    "print(\"fall_samples: \", fall_samples)\n",
    "print(\"lying_samples: \", lying_samples)\n",
    "print()"
   ]
  },
  {
   "cell_type": "code",
   "execution_count": null,
   "id": "5e5cff6d",
   "metadata": {},
   "outputs": [],
   "source": []
  },
  {
   "cell_type": "code",
   "execution_count": null,
   "id": "fe96a32f",
   "metadata": {},
   "outputs": [],
   "source": []
  },
  {
   "cell_type": "code",
   "execution_count": null,
   "id": "0f1c46a8",
   "metadata": {},
   "outputs": [],
   "source": []
  }
 ],
 "metadata": {
  "kernelspec": {
   "display_name": "Python 3 (ipykernel)",
   "language": "python",
   "name": "python3"
  },
  "language_info": {
   "codemirror_mode": {
    "name": "ipython",
    "version": 3
   },
   "file_extension": ".py",
   "mimetype": "text/x-python",
   "name": "python",
   "nbconvert_exporter": "python",
   "pygments_lexer": "ipython3",
   "version": "3.11.4"
  }
 },
 "nbformat": 4,
 "nbformat_minor": 5
}
